<svg width="32" height="27" viewBox="0 0 32 27" fill="none" xmlns="http://www.w3.org/2000/svg">
<rect width="32" height="27" rx="8" fill="#5BDBB0"/>
<g clip-path="url(#clip0)">
<path d="M13.4688 17.0075V19.9063C13.4688 20.1088 13.5987 20.2881 13.7912 20.3519C13.8394 20.3675 13.8887 20.375 13.9375 20.375C14.0837 20.375 14.225 20.3063 14.315 20.1838L16.0106 17.8763L13.4688 17.0075Z" fill="white"/>
<path d="M22.8027 6.08605C22.6589 5.98417 22.4702 5.97042 22.3139 6.0523L8.25141 13.396C8.08516 13.4829 7.98704 13.6604 8.00079 13.8473C8.01516 14.0348 8.13954 14.1948 8.31641 14.2554L12.2258 15.5917L20.5514 8.47292L14.1089 16.2348L20.6608 18.4742C20.7095 18.4904 20.7608 18.4992 20.812 18.4992C20.897 18.4992 20.9814 18.476 21.0558 18.431C21.1745 18.3585 21.2552 18.2367 21.2758 18.0998L22.9945 6.5373C23.0202 6.3623 22.9464 6.18855 22.8027 6.08605Z" fill="white"/>
</g>
<defs>
<clipPath id="clip0">
<rect width="15" height="15" fill="white" transform="translate(8 6)"/>
</clipPath>
</defs>
</svg>
