<svg width="32" height="27" viewBox="0 0 32 27" fill="none" xmlns="http://www.w3.org/2000/svg">
<rect width="32" height="27" rx="8" fill="#3881F7"/>
<g clip-path="url(#clip0)">
<path d="M22.8333 15H22.3333V8.5C22.3333 7.21333 21.2867 6.16667 20 6.16667C18.7133 6.16667 17.6667 7.21333 17.6667 8.5V17.6667C17.6667 18.8613 16.6947 19.8333 15.5 19.8333C14.3053 19.8333 13.3333 18.8613 13.3333 17.6667V14.28C15.5907 13.9547 17.3333 12.0127 17.3333 9.66667C17.3333 7.09333 15.2393 5 12.6667 5C10.094 5 8 7.09333 8 9.66667C8 12.0127 9.74267 13.9547 12 14.28V17.6667C12 19.5967 13.57 21.1667 15.5 21.1667C17.43 21.1667 19 19.5967 19 17.6667V8.5C19 7.94867 19.4487 7.5 20 7.5C20.5513 7.5 21 7.94867 21 8.5V15H20.5C19.8567 15 19.3333 15.5233 19.3333 16.1667V18.6667C19.3333 19.9533 20.38 21 21.6667 21C22.9533 21 24 19.9533 24 18.6667V16.1667C24 15.5233 23.4767 15 22.8333 15ZM11 11.5C11 11.224 11.224 11 11.5 11H12.92C13.148 11 13.3333 10.8147 13.3333 10.5867C13.3333 10.352 13.148 10.1667 12.92 10.1667H12.4133C11.634 10.1667 11 9.53267 11 8.75333C11 8.05267 11.5053 7.476 12.1667 7.35867V6.83333C12.1667 6.55733 12.3907 6.33333 12.6667 6.33333C12.9427 6.33333 13.1667 6.55733 13.1667 6.83333V7.33333H13.8333C14.1093 7.33333 14.3333 7.55733 14.3333 7.83333C14.3333 8.10933 14.1093 8.33333 13.8333 8.33333H12.4133C12.1853 8.33333 12 8.51867 12 8.74667C12 8.98133 12.1853 9.16667 12.4133 9.16667H12.92C13.6993 9.16667 14.3333 9.80067 14.3333 10.58C14.3333 11.2807 13.828 11.8573 13.1667 11.9747V12.4993C13.1667 12.776 12.9427 13 12.6667 13C12.3907 13 12.1667 12.776 12.1667 12.5V12H11.5C11.224 12 11 11.776 11 11.5Z" fill="white"/>
</g>
<defs>
<clipPath id="clip0">
<rect width="16" height="16" fill="white" transform="translate(8 5)"/>
</clipPath>
</defs>
</svg>
