<svg width="132" height="24" viewBox="0 0 132 24" fill="none" xmlns="http://www.w3.org/2000/svg">
<g clip-path="url(#clip0)">
<path d="M27.155 4.94512V1.79318H29.9486V4.94512H27.155ZM27.155 17.6545V5.60139H29.9486V17.6545H27.155Z" fill="#1E1E1E"/>
<path d="M38.1569 5.29637C38.8204 5.28626 39.4784 5.41943 40.0876 5.68711C40.6968 5.95479 41.2432 6.35088 41.6909 6.84923C42.1689 7.34921 42.5444 7.94094 42.7955 8.58997C43.0466 9.239 43.1683 9.93236 43.1536 10.6297V17.6545H40.3554V10.6297C40.3803 9.98008 40.1573 9.34583 39.7331 8.85963C39.5335 8.63845 39.291 8.46186 39.0208 8.34106C38.7507 8.22026 38.4588 8.15789 38.1637 8.15789C37.8686 8.15789 37.5767 8.22026 37.3065 8.34106C37.0364 8.46186 36.7938 8.63845 36.5942 8.85963C36.17 9.34583 35.9471 9.98008 35.9719 10.6297V17.6545H33.1601V5.6014H35.9583V5.81861C36.6429 5.4777 37.3946 5.29914 38.1569 5.29637Z" fill="#1E1E1E"/>
<path d="M52.6156 17.502C51.8654 17.7171 51.0745 17.7389 50.314 17.5654C49.5535 17.392 48.8474 17.0287 48.2593 16.5084C47.6544 16.0073 47.1703 15.3718 46.8443 14.6508C46.5183 13.9298 46.3591 13.1423 46.3787 12.3489V8.13863H44.8706V5.29635H46.3787V2.88849H49.1724V5.29635H51.9705V8.13863H49.1724V12.3397C49.1508 12.7353 49.237 13.1292 49.4213 13.4782C49.6056 13.8272 49.881 14.1177 50.2171 14.3177C50.5744 14.5342 50.9706 14.676 51.3825 14.7347C51.7943 14.7934 52.2135 14.7679 52.6156 14.6597V17.502Z" fill="#1E1E1E"/>
<path d="M67.3196 5.66608H70.1178V17.6545H67.3196V17.2848C66.6369 17.6266 65.8865 17.8052 65.1256 17.807C64.4621 17.8172 63.804 17.684 63.1948 17.4163C62.5856 17.1486 62.0392 16.7525 61.5915 16.2542C61.1173 15.7556 60.7448 15.1666 60.4953 14.5209C60.2458 13.8753 60.1244 13.1858 60.1379 12.4922V10.6297C60.1244 9.93607 60.2458 9.24658 60.4953 8.60093C60.7448 7.95528 61.1173 7.36623 61.5915 6.8677C62.0392 6.36934 62.5856 5.97325 63.1948 5.70557C63.804 5.4379 64.4621 5.30472 65.1256 5.31484C65.8862 5.31925 66.636 5.49774 67.3196 5.83708V5.66608ZM63.5584 14.2669C63.7587 14.4868 64.0015 14.6623 64.2716 14.7823C64.5416 14.9023 64.8331 14.9642 65.1278 14.9642C65.4225 14.9642 65.7141 14.9023 65.9841 14.7823C66.2542 14.6623 66.497 14.4868 66.6973 14.2669C67.123 13.7743 67.3459 13.1337 67.3196 12.4783V10.6297C67.3421 9.98043 67.1194 9.34704 66.6973 8.85961C66.4977 8.63843 66.2552 8.46184 65.985 8.34104C65.7148 8.22024 65.4229 8.15787 65.1278 8.15787C64.8327 8.15787 64.5409 8.22024 64.2707 8.34104C64.0005 8.46184 63.758 8.63843 63.5584 8.85961C63.1342 9.34581 62.9112 9.98006 62.9361 10.6297V12.4783C62.9079 13.134 63.131 13.7753 63.5584 14.2669Z" fill="#1E1E1E"/>
<path d="M79.8795 5.60139H82.6732V18.6852C82.6862 19.3787 82.5645 20.068 82.3151 20.7136C82.0656 21.3592 81.6934 21.9483 81.2196 22.4471C80.7709 22.9467 80.223 23.3435 79.6121 23.6112C79.0013 23.8789 78.3415 24.0114 77.6764 24H73.7381V21.1577H77.6764C77.9723 21.1645 78.266 21.1051 78.5367 20.9837C78.8075 20.8623 79.0488 20.6819 79.2436 20.4552C79.6682 19.969 79.8927 19.3352 79.8705 18.6852V17.2987C79.1866 17.6357 78.4363 17.8095 77.6764 17.8071C77.0123 17.8172 76.3535 17.6841 75.7436 17.4164C75.1336 17.1488 74.5864 16.7527 74.1378 16.2542C73.661 15.7545 73.2865 15.1634 73.0362 14.5152C72.7859 13.867 72.6647 13.1746 72.6797 12.4783V10.6297C72.6653 9.93637 72.7859 9.24701 73.0346 8.60134C73.2833 7.95567 73.6552 7.36647 74.1288 6.86771C74.5767 6.3647 75.1247 5.96443 75.7364 5.69351C76.348 5.42258 77.0094 5.2872 77.6764 5.29636C78.437 5.30078 79.1869 5.47927 79.8705 5.81861L79.8795 5.60139ZM76.1138 14.2669C76.3141 14.4868 76.5569 14.6623 76.827 14.7823C77.097 14.9023 77.3886 14.9643 77.6833 14.9643C77.978 14.9643 78.2695 14.9023 78.5395 14.7823C78.8096 14.6623 79.0524 14.4868 79.2527 14.2669C79.6817 13.776 79.9065 13.1347 79.8795 12.4783V10.6297C79.9027 9.97952 79.6781 9.34537 79.2527 8.85962C79.0531 8.63844 78.8106 8.46186 78.5404 8.34106C78.2702 8.22026 77.9784 8.15788 77.6833 8.15788C77.3882 8.15788 77.0963 8.22026 76.8261 8.34106C76.5559 8.46186 76.3134 8.63844 76.1138 8.85962C75.6917 9.34706 75.469 9.98044 75.4915 10.6297V12.4783C75.4652 13.1338 75.6881 13.7743 76.1138 14.2669Z" fill="#1E1E1E"/>
<path d="M90.241 17.807C89.5775 17.8172 88.9194 17.684 88.3102 17.4163C87.701 17.1486 87.1546 16.7525 86.7069 16.2542C86.2327 15.7556 85.8602 15.1666 85.6107 14.5209C85.3612 13.8753 85.2398 13.1858 85.2533 12.4922V10.6297C85.2398 9.93607 85.3612 9.24658 85.6107 8.60093C85.8602 7.95528 86.2327 7.36623 86.7069 6.8677C87.1613 6.37742 87.7093 5.98679 88.3175 5.71981C88.9256 5.45282 89.5809 5.31509 90.2432 5.31509C90.9055 5.31509 91.5609 5.45282 92.169 5.71981C92.7771 5.98679 93.3252 6.37742 93.7796 6.8677C94.2531 7.36646 94.625 7.95565 94.8737 8.60132C95.1224 9.24699 95.243 9.93636 95.2286 10.6297V13.8001H88.3513C88.5152 14.1659 88.7824 14.4738 89.119 14.6846C89.4555 14.8953 89.8461 14.9992 90.241 14.9832H94.1793V17.8255L90.241 17.807ZM88.0515 10.9393H92.435V10.6297C92.4575 9.98043 92.2348 9.34704 91.8127 8.85961C91.6131 8.63843 91.3705 8.46184 91.1004 8.34104C90.8302 8.22024 90.5383 8.15787 90.2432 8.15787C89.9481 8.15787 89.6562 8.22024 89.3861 8.34104C89.1159 8.46184 88.8734 8.63843 88.6738 8.85961C88.2496 9.34581 88.0266 9.98006 88.0515 10.6297V10.9393Z" fill="#1E1E1E"/>
<path d="M102.801 5.29635C103.465 5.28646 104.124 5.41972 104.734 5.68736C105.343 5.955 105.891 6.35096 106.34 6.84921C106.815 7.35017 107.188 7.94239 107.437 8.5914C107.686 9.24041 107.805 9.93327 107.789 10.6297V17.6545H104.995V10.6297C105.017 9.98043 104.795 9.34704 104.373 8.85961C104.173 8.63831 103.93 8.46165 103.659 8.3408C103.389 8.21996 103.096 8.15756 102.801 8.15756C102.505 8.15756 102.213 8.21996 101.943 8.3408C101.672 8.46165 101.429 8.63831 101.229 8.85961C100.807 9.34704 100.584 9.98043 100.607 10.6297V17.6545H97.8133V5.60138H100.607V5.81859C101.29 5.47926 102.04 5.30077 102.801 5.29635Z" fill="#1E1E1E"/>
<path d="M110.155 12.4783V10.6297C110.141 9.93637 110.261 9.247 110.51 8.60133C110.759 7.95566 111.131 7.36646 111.604 6.8677C112.053 6.36922 112.6 5.97311 113.21 5.70545C113.82 5.43779 114.479 5.30466 115.143 5.31484C116.013 5.31123 116.868 5.55104 117.614 6.00808C118.375 6.46791 119.002 7.125 119.431 7.91219L117.128 9.59907C117.009 9.24507 116.802 8.92861 116.527 8.68086C116.251 8.4331 115.917 8.26258 115.557 8.18609C115.197 8.1096 114.824 8.12978 114.474 8.24464C114.125 8.35949 113.81 8.56507 113.562 8.84113C113.137 9.33367 112.917 9.9751 112.949 10.6297V12.4783C112.918 13.1328 113.138 13.7739 113.562 14.2669C113.81 14.5419 114.123 14.7469 114.472 14.8619C114.821 14.9769 115.193 14.998 115.552 14.923C115.911 14.8481 116.245 14.6797 116.522 14.4343C116.798 14.1889 117.007 13.8748 117.128 13.5228L119.467 15.2051C119.039 15.9933 118.412 16.6508 117.65 17.1092C116.905 17.5678 116.05 17.8093 115.179 17.807C114.515 17.8172 113.856 17.6841 113.246 17.4164C112.636 17.1488 112.089 16.7527 111.641 16.2542C111.159 15.7568 110.779 15.1667 110.524 14.5184C110.269 13.8701 110.144 13.1766 110.155 12.4783Z" fill="#1E1E1E"/>
<path d="M129.206 5.60138H132V18.6851C132.014 19.3784 131.893 20.0676 131.644 20.7132C131.396 21.3588 131.024 21.9481 130.551 22.4471C130.102 22.9456 129.555 23.3417 128.945 23.6094C128.335 23.8771 127.677 24.0102 127.012 24H123.101V21.1577H127.035C127.332 21.1642 127.626 21.1047 127.897 20.9833C128.169 20.862 128.411 20.6817 128.607 20.4552C129.029 19.9675 129.251 19.3343 129.229 18.6851V17.2987C128.546 17.6404 127.796 17.8191 127.035 17.8209C126.371 17.8311 125.712 17.698 125.102 17.4303C124.492 17.1626 123.945 16.7665 123.496 16.268C123.016 15.7679 122.638 15.175 122.385 14.5242C122.132 13.8735 122.01 13.1779 122.025 12.4783V5.60138H124.818V12.4783C124.795 13.1299 125.019 13.7656 125.445 14.253C125.645 14.473 125.888 14.6484 126.158 14.7684C126.428 14.8884 126.72 14.9504 127.015 14.9504C127.309 14.9504 127.601 14.8884 127.871 14.7684C128.141 14.6484 128.384 14.473 128.584 14.253C129.006 13.7639 129.229 13.129 129.206 12.4783V5.60138Z" fill="#1E1E1E"/>
<path d="M22.9072 6.84912C22.447 6.3547 21.8913 5.96241 21.275 5.69688C20.6586 5.43135 19.995 5.29832 19.3258 5.30613C18.6565 5.31394 17.9961 5.46243 17.3859 5.74227C16.7757 6.02212 16.229 6.42727 15.7801 6.93231C15.332 6.414 14.7787 6.00091 14.1583 5.72162C13.5379 5.44232 12.8653 5.3035 12.187 5.31475C11.4278 5.3134 10.678 5.48555 9.99294 5.8185C9.94334 5.8453 9.88661 5.85527 9.83104 5.84696C9.77548 5.83864 9.72397 5.81248 9.68405 5.77229C9.64311 5.72506 9.6205 5.66426 9.62046 5.60129C9.66297 4.20285 9.19168 2.83849 8.2986 1.7746C7.51793 0.955961 6.53359 0.368164 5.45046 0.0738454C5.25455 0.0230409 5.05302 -0.00181312 4.85085 -0.000100259H-0.000521265V4.2564C-0.0100245 5.02505 0.140027 5.78708 0.439823 6.49269C0.73962 7.19829 1.18241 7.83158 1.73925 8.35114C1.82101 8.42509 1.90732 8.49903 1.99817 8.56836C4.20128 10.3338 6.845 9.72376 7.19931 9.63133V17.6544H9.99294V10.6296C9.9698 9.97941 10.1944 9.34526 10.6198 8.85952C10.8194 8.63834 11.0619 8.46175 11.3321 8.34095C11.6022 8.22015 11.8941 8.15777 12.1892 8.15777C12.4843 8.15777 12.7762 8.22015 13.0464 8.34095C13.3165 8.46175 13.5591 8.63834 13.7587 8.85952C14.1808 9.34695 14.4035 9.98034 14.381 10.6296V17.6544H17.1746V10.6296C17.1515 9.97941 17.376 9.34526 17.8015 8.85952C18.001 8.63834 18.2436 8.46175 18.5137 8.34095C18.7839 8.22015 19.0758 8.15777 19.3709 8.15777C19.666 8.15777 19.9579 8.22015 20.228 8.34095C20.4982 8.46175 20.7408 8.63834 20.9403 8.85952C21.3625 9.34695 21.5852 9.98034 21.5626 10.6296V17.6544H24.3563V10.6296C24.3731 9.93318 24.2536 9.24032 24.0049 8.59131C23.7561 7.9423 23.383 7.35008 22.9072 6.84912ZM6.47252 6.47015L4.77363 6.5025H4.68732C4.26135 6.43365 3.8682 6.22798 3.56533 5.91556C3.40262 5.74192 3.27184 5.53999 3.17922 5.31937C3.06781 5.06026 3.01354 4.77946 3.02023 4.49672L3.04748 2.97621L4.66007 2.94848C4.75085 2.94448 4.84161 2.957 4.92807 2.98546C5.32526 3.11458 5.68231 3.3472 5.96376 3.66021C6.14304 3.85941 6.28608 4.08944 6.38621 4.33959C6.46432 4.52815 6.50299 4.73118 6.49977 4.93577L6.47252 6.47015Z" fill="#00C2CB"/>
</g>
<defs>
<clipPath id="clip0">
<rect width="132" height="24" fill="white"/>
</clipPath>
</defs>
</svg>
