<svg width="32" height="27" viewBox="0 0 32 27" fill="none" xmlns="http://www.w3.org/2000/svg">
<rect width="32" height="27" rx="8" fill="#52CAFB"/>
<path d="M10.375 12.5C10.7532 12.5 11.0955 12.3483 11.3484 12.1046L12.736 12.7983C12.729 12.8549 12.7188 12.9104 12.7188 12.9688C12.7188 13.7441 13.3496 14.375 14.125 14.375C14.9004 14.375 15.5312 13.7441 15.5312 12.9688C15.5312 12.7523 15.478 12.5497 15.3903 12.3663L17.2726 10.484C17.4559 10.5718 17.6586 10.625 17.875 10.625C18.6504 10.625 19.2812 9.99414 19.2812 9.21875C19.2812 9.07275 19.2526 8.93469 19.2111 8.80225L20.8466 7.57593C21.0697 7.72498 21.3372 7.8125 21.625 7.8125C22.4004 7.8125 23.0312 7.18164 23.0312 6.40625C23.0312 5.63086 22.4004 5 21.625 5C20.8496 5 20.2188 5.63086 20.2188 6.40625C20.2188 6.55225 20.2474 6.69031 20.2889 6.82275L18.6534 8.04907C18.4303 7.90002 18.1628 7.8125 17.875 7.8125C17.0996 7.8125 16.4688 8.44336 16.4688 9.21875C16.4688 9.43518 16.522 9.63782 16.6097 9.82117L14.7274 11.7035C14.5441 11.6157 14.3414 11.5625 14.125 11.5625C13.7468 11.5625 13.4045 11.7142 13.1516 11.9579L11.764 11.2642C11.771 11.2076 11.7812 11.1521 11.7812 11.0938C11.7812 10.3184 11.1504 9.6875 10.375 9.6875C9.59961 9.6875 8.96875 10.3184 8.96875 11.0938C8.96875 11.8691 9.59961 12.5 10.375 12.5V12.5Z" fill="white"/>
<path d="M23.5312 20.0625H23.0312V10.1562C23.0312 9.89722 22.8215 9.6875 22.5625 9.6875H20.6875C20.4285 9.6875 20.2188 9.89722 20.2188 10.1562V20.0625H19.2812V12.9688C19.2812 12.7097 19.0715 12.5 18.8125 12.5H16.9375C16.6785 12.5 16.4688 12.7097 16.4688 12.9688V20.0625H15.5312V16.7188C15.5312 16.4597 15.3215 16.25 15.0625 16.25H13.1875C12.9285 16.25 12.7188 16.4597 12.7188 16.7188V20.0625H11.7812V14.8438C11.7812 14.5847 11.5715 14.375 11.3125 14.375H9.4375C9.17847 14.375 8.96875 14.5847 8.96875 14.8438V20.0625H8.46875C8.20972 20.0625 8 20.2722 8 20.5312C8 20.7903 8.20972 21 8.46875 21H23.5312C23.7903 21 24 20.7903 24 20.5312C24 20.2722 23.7903 20.0625 23.5312 20.0625Z" fill="white"/>
</svg>
